HIERARCHY
ROOT hip
{
  OFFSET 0.00112043 5.09927 -9.65472
  CHANNELS 6 Xposition Yposition Zposition Zrotation Xrotation Yrotation
  JOINT abdomen
  {
    OFFSET 0 -1.186 -1.5018
    CHANNELS 3 Zrotation Xrotation Yrotation
    JOINT abdomen2
    {
      OFFSET 0 9.964 0.2134
      CHANNELS 3 Zrotation Xrotation Yrotation
      JOINT chest
      {
        OFFSET 0 13.134 -3.2573
        CHANNELS 3 Zrotation Xrotation Yrotation
        JOINT neck
        {
          OFFSET 0 20.686 -1.6905
          CHANNELS 3 Zrotation Xrotation Yrotation
          JOINT head
          {
            OFFSET 0 7.238 -0.1237
            CHANNELS 3 Zrotation Xrotation Yrotation
            End Site
            {
              OFFSET 0 0 0
            }
          }
        }
        JOINT lCollar
        {
          OFFSET 1.7069 20.075 5.0056
          CHANNELS 3 Zrotation Xrotation Yrotation
          JOINT lShldr
          {
            OFFSET 13.6458 -0.047 -4.849
            CHANNELS 3 Zrotation Xrotation Yrotation
            JOINT lForeArm
            {
              OFFSET 28.3255 -0.9759 2.2888
              CHANNELS 3 Zrotation Xrotation Yrotation
              JOINT lHand
              {
                OFFSET 22.1583 -0.53 10.8316
                CHANNELS 3 Zrotation Xrotation Yrotation
                JOINT lThumb1
                {
                  OFFSET 0.786 0.112 2.5817
                  CHANNELS 3 Zrotation Xrotation Yrotation
                  JOINT lThumb2
                  {
                    OFFSET 0.3601 -0.878 4.2331
                    CHANNELS 3 Zrotation Xrotation Yrotation
                    JOINT lThumb2_End
                    {
                      OFFSET 1.8127 -1.216 2.2227
                      CHANNELS 3 Zrotation Xrotation Yrotation
                      End Site
                      {
                        OFFSET 0.0181 -0.0122 0.0222
                      }
                    }
                  }
                }
                JOINT lCarpal1
                {
                  OFFSET 0.9571 1.114 1.7695
                  CHANNELS 3 Zrotation Xrotation Yrotation
                  JOINT lIndex1
                  {
                    OFFSET 4.1246 0.487 4.1451
                    CHANNELS 3 Zrotation Xrotation Yrotation
                    JOINT lIndex2
                    {
                      OFFSET 3.4052 -1.454 2.7682
                      CHANNELS 3 Zrotation Xrotation Yrotation
                      JOINT lIndex2_End
                      {
                        OFFSET 1.4531 -1.795 1.2713
                        CHANNELS 3 Zrotation Xrotation Yrotation
                        End Site
                        {
                          OFFSET 0.0145 -0.0179 0.0127
                        }
                      }
                    }
                  }
                  JOINT lMid1
                  {
                    OFFSET 5.6954 0.21 2.1184
                    CHANNELS 3 Zrotation Xrotation Yrotation
                    JOINT lMid2
                    {
                      OFFSET 3.9766 -1.54 2.3863
                      CHANNELS 3 Zrotation Xrotation Yrotation
                      JOINT lMid2_End
                      {
                        OFFSET 1.4042 -1.926 1.125
                        CHANNELS 3 Zrotation Xrotation Yrotation
                        End Site
                        {
                          OFFSET 0.014 -0.0193 0.0113
                        }
                      }
                    }
                  }
                }
                JOINT lCarpal2
                {
                  OFFSET 2.0956 0.66 -0.3894
                  CHANNELS 3 Zrotation Xrotation Yrotation
                  JOINT lRing1
                  {
                    OFFSET 5.0395 -0.09 2.4971
                    CHANNELS 3 Zrotation Xrotation Yrotation
                    JOINT lRing2
                    {
                      OFFSET 3.7921 -1.552 1.4806
                      CHANNELS 3 Zrotation Xrotation Yrotation
                      JOINT lRing2_End
                      {
                        OFFSET 1.4655 -1.808 0.9609
                        CHANNELS 3 Zrotation Xrotation Yrotation
                        End Site
                        {
                          OFFSET 0.0147 -0.0181 0.0096
                        }
                      }
                    }
                  }
                  JOINT lPinky1
                  {
                    OFFSET 4.9141 -1.269 0.3591
                    CHANNELS 3 Zrotation Xrotation Yrotation
                    JOINT lPinky2
                    {
                      OFFSET 3.1477 -1.685 0.8462
                      CHANNELS 3 Zrotation Xrotation Yrotation
                      JOINT lPinky2_End
                      {
                        OFFSET 0.8055 -1.585 0.7955
                        CHANNELS 3 Zrotation Xrotation Yrotation
                        End Site
                        {
                          OFFSET 0.0081 -0.0158 0.008
                        }
                      }
                    }
                  }
                }
              }
            }
          }
        }
        JOINT rCollar
        {
          OFFSET -1.7069 20.075 5.0056
          CHANNELS 3 Zrotation Xrotation Yrotation
          JOINT rShldr
          {
            OFFSET -13.6458 -0.047 -4.849
            CHANNELS 3 Zrotation Xrotation Yrotation
            JOINT rForeArm
            {
              OFFSET -28.3255 -0.9759 2.2888
              CHANNELS 3 Zrotation Xrotation Yrotation
              JOINT rHand
              {
                OFFSET -22.1583 -0.53 10.8316
                CHANNELS 3 Zrotation Xrotation Yrotation
                JOINT rThumb1
                {
                  OFFSET -0.786 0.112 2.5817
                  CHANNELS 3 Zrotation Xrotation Yrotation
                  JOINT rThumb2
                  {
                    OFFSET -0.3601 -0.878 4.2331
                    CHANNELS 3 Zrotation Xrotation Yrotation
                    JOINT rThumb2_End
                    {
                      OFFSET -1.8127 -1.216 2.2227
                      CHANNELS 3 Zrotation Xrotation Yrotation
                      End Site
                      {
                        OFFSET -0.0181 -0.0122 0.0222
                      }
                    }
                  }
                }
                JOINT rCarpal1
                {
                  OFFSET -0.9571 1.114 1.7695
                  CHANNELS 3 Zrotation Xrotation Yrotation
                  JOINT rIndex1
                  {
                    OFFSET -4.1246 0.487 4.1451
                    CHANNELS 3 Zrotation Xrotation Yrotation
                    JOINT rIndex2
                    {
                      OFFSET -3.4052 -1.454 2.7682
                      CHANNELS 3 Zrotation Xrotation Yrotation
                      JOINT rIndex2_End
                      {
                        OFFSET -1.4531 -1.795 1.2713
                        CHANNELS 3 Zrotation Xrotation Yrotation
                        End Site
                        {
                          OFFSET -0.0145 -0.018 0.0127
                        }
                      }
                    }
                  }
                  JOINT rMid1
                  {
                    OFFSET -5.6954 0.21 2.1184
                    CHANNELS 3 Zrotation Xrotation Yrotation
                    JOINT rMid2
                    {
                      OFFSET -3.9766 -1.54 2.3863
                      CHANNELS 3 Zrotation Xrotation Yrotation
                      JOINT rMid2_End
                      {
                        OFFSET -1.4042 -1.926 1.125
                        CHANNELS 3 Zrotation Xrotation Yrotation
                        End Site
                        {
                          OFFSET -0.014 -0.0193 0.0113
                        }
                      }
                    }
                  }
                }
                JOINT rCarpal2
                {
                  OFFSET -2.0956 0.66 -0.3894
                  CHANNELS 3 Zrotation Xrotation Yrotation
                  JOINT rRing1
                  {
                    OFFSET -5.0395 -0.09 2.4971
                    CHANNELS 3 Zrotation Xrotation Yrotation
                    JOINT rRing2
                    {
                      OFFSET -3.7921 -1.552 1.4806
                      CHANNELS 3 Zrotation Xrotation Yrotation
                      JOINT rRing2_End
                      {
                        OFFSET -1.4655 -1.808 0.9609
                        CHANNELS 3 Zrotation Xrotation Yrotation
                        End Site
                        {
                          OFFSET -0.0147 -0.0181 0.0096
                        }
                      }
                    }
                  }
                  JOINT rPinky1
                  {
                    OFFSET -4.9141 -1.269 0.3592
                    CHANNELS 3 Zrotation Xrotation Yrotation
                    JOINT rPinky2
                    {
                      OFFSET -3.1477 -1.685 0.8462
                      CHANNELS 3 Zrotation Xrotation Yrotation
                      JOINT rPinky2_End
                      {
                        OFFSET -0.8055 -1.585 0.7955
                        CHANNELS 3 Zrotation Xrotation Yrotation
                        End Site
                        {
                          OFFSET -0.0081 -0.0158 0.008
                        }
                      }
                    }
                  }
                }
              }
            }
          }
        }
      }
    }
  }
  JOINT lThigh
  {
    OFFSET 8.367 -8.2066 0.5982
    CHANNELS 3 Zrotation Xrotation Yrotation
    JOINT lShin
    {
      OFFSET 2.1923 -43.463 -0.4932
      CHANNELS 3 Zrotation Xrotation Yrotation
      JOINT lFoot
      {
        OFFSET 0.7333 -45.8593 -2.6451
        CHANNELS 3 Zrotation Xrotation Yrotation
        End Site
        {
          OFFSET 2.6618 -4.2699 12.3931
        }
      }
    }
  }
  JOINT rThigh
  {
    OFFSET -8.367 -8.2066 0.5982
    CHANNELS 3 Zrotation Xrotation Yrotation
    JOINT rShin
    {
      OFFSET -2.1923 -43.463 -0.4931
      CHANNELS 3 Zrotation Xrotation Yrotation
      JOINT rFoot
      {
        OFFSET -0.7333 -45.8593 -2.6451
        CHANNELS 3 Zrotation Xrotation Yrotation
        End Site
        {
          OFFSET -2.6618 -4.2699 12.3931
        }
      }
    }
  }
}
MOTION
Frames:	4
Frame Time:	0.0333333
0 91.7903 2.51682 0 0 -0 0 0 -0 0 0 -0 0 0 -0 0 0 -0 0 0 -0 0 0 -0 1.66051 0.0835086 5.75766 -0.0175111 0.895433 15.7816 7.95139e-016 -1.98785e-016 -0 5.46658e-016 -3.97569e-016 -0 5.96354e-016 0 -0 3.97569e-016 1.98785e-016 9.54166e-015 1.49089e-016 -3.97569e-016 -0 6.4605e-016 0 3.18055e-015 5.96354e-016 0 3.18055e-015 8.94531e-016 -1.98785e-016 6.36111e-015 6.4605e-016 0 3.18055e-015 5.96354e-016 0 3.18055e-015 8.94531e-016 -1.98785e-016 6.36111e-015 1.49089e-016 -3.97569e-016 -0 6.4605e-016 0 3.18055e-015 5.96354e-016 0 3.18055e-015 8.94531e-016 -1.98785e-016 6.36111e-015 6.4605e-016 0 3.18055e-015 5.96354e-016 0 3.18055e-015 8.94531e-016 -1.98785e-016 6.36111e-015 0 0 -0 -1.4496 0.0636048 -5.0245 -1.74811 1.20616 -16.8394 -1.19271e-015 1.98785e-016 -3.18055e-015 -3.97569e-016 1.98785e-016 -3.18055e-015 -2.98177e-016 1.98785e-016 -3.18055e-015 -2.98177e-016 3.97569e-016 -0 4.96962e-016 0 -6.36111e-015 -9.93923e-017 3.97569e-016 -0 -8.94531e-016 5.96354e-016 -0 -3.97569e-016 3.97569e-016 -0 -9.93923e-017 3.97569e-016 -0 -8.94531e-016 5.96354e-016 -0 -3.97569e-016 3.97569e-016 -0 4.96962e-016 0 -6.36111e-015 -9.93923e-017 3.97569e-016 -0 -8.94531e-016 5.96354e-016 -0 -3.97569e-016 3.97569e-016 -0 -9.93923e-017 3.97569e-016 -0 -8.94531e-016 5.96354e-016 -0 -3.97569e-016 3.97569e-016 -0 -4.66111 -0.998717 0.12318 0.00986924 1.54847 0.176523 4.65186 -0.572283 -0.254274 4.66111 -0.998765 -0.123176 -0.00986867 1.54869 -0.176537 -4.65186 -0.572453 0.25427 
-23.4778 25.6407 47.7408 -1.23918e-014 4.5103e-015 -130 -2.9061 10.3239 -2.52369 -5.47666 20.7558 -4.61828 -5.47666 20.7558 -4.61829 -0.000483391 0.000469345 -1.89804e-005 0.0808199 -0.723541 -0.245869 -33.7975 2.92248 -54.5194 -5.92075 -0.850473 -19.0741 7.73692 -5.21427 -3.20576 -0.701262 -5.67464 -28.3853 1.91927e-006 2.30684e-006 2.2894e-006 -3.18055e-015 6.36111e-015 2.54444e-014 1.59028e-015 3.97569e-015 1.59028e-014 -1.59028e-015 3.18055e-015 3.18055e-015 1.91927e-006 2.30684e-006 2.2894e-006 -1.59028e-015 2.38542e-015 1.27222e-014 1.59028e-015 4.77083e-015 1.27222e-014 1.91927e-006 2.30684e-006 2.2894e-006 -1.59028e-015 2.38542e-015 1.27222e-014 1.59028e-015 4.77083e-015 1.27222e-014 -1.59028e-015 3.18055e-015 3.18055e-015 1.91927e-006 2.30684e-006 2.2894e-006 -1.59028e-015 2.38542e-015 1.27222e-014 1.59028e-015 4.77083e-015 1.27222e-014 1.91927e-006 2.30684e-006 2.2894e-006 -1.59028e-015 2.38542e-015 1.27222e-014 1.59028e-015 4.77083e-015 1.27222e-014 50.56 11.0736 26.1447 24.503 20.6445 3.78321 -4.1245 3.66094 51.0711 19.5947 6.79764 -20.7094 2.1867e-006 1.52823e-006 -7.91164e-007 1.76556e-031 6.36111e-015 -1.59028e-015 -2.1867e-006 -1.52823e-006 7.91164e-007 0 3.18055e-015 -0 2.1867e-006 1.52823e-006 -7.91164e-007 1.32417e-031 4.77083e-015 -1.59028e-015 -2.1867e-006 -1.52823e-006 7.91164e-007 2.1867e-006 1.52823e-006 -7.91164e-007 1.32417e-031 4.77083e-015 -1.59028e-015 -2.1867e-006 -1.52823e-006 7.91164e-007 0 3.18055e-015 -0 2.1867e-006 1.52823e-006 -7.91164e-007 1.32417e-031 4.77083e-015 -1.59028e-015 -2.1867e-006 -1.52823e-006 7.91164e-007 2.1867e-006 1.52823e-006 -7.91164e-007 1.32417e-031 4.77083e-015 -1.59028e-015 -2.1867e-006 -1.52823e-006 7.91164e-007 32.2964 -84.3554 44.6626 176.232 25.1714 -177.574 -25.8109 37.3792 75.8446 -121.068 -24.5455 -103.651 158.388 66.0499 -152.711 -3.52051 2.92145 -37.4889 
-23.4778 25.6407 47.7408 -1.23918e-014 4.5103e-015 -130 -2.9061 10.3239 -2.52369 -5.47666 20.7558 -4.61828 -5.47666 20.7558 -4.61829 -0.000483391 0.000469345 -1.89804e-005 0.233732 -2.17639 -0.736388 -33.7975 2.92248 -54.5194 -5.92076 -0.850471 -19.0741 7.33605 -5.15041 -4.46345 -0.701247 -5.67462 -28.3853 3.18055e-015 -2.38542e-015 6.36111e-015 1.32417e-031 -7.95139e-016 9.54166e-015 -1.59028e-015 -1.59028e-015 -3.18055e-015 6.36111e-015 1.59028e-015 6.36111e-015 -1.59028e-015 -1.59028e-015 1.27222e-014 -3.18055e-015 -7.95139e-016 -3.18055e-015 -3.18055e-015 -3.18055e-015 -3.18055e-015 -1.59028e-015 -1.59028e-015 1.27222e-014 -3.18055e-015 -7.95139e-016 -3.18055e-015 -3.18055e-015 -3.18055e-015 -3.18055e-015 6.36111e-015 1.59028e-015 6.36111e-015 -1.59028e-015 -1.59028e-015 1.27222e-014 -3.18055e-015 -7.95139e-016 -3.18055e-015 -3.18055e-015 -3.18055e-015 -3.18055e-015 -1.59028e-015 -1.59028e-015 1.27222e-014 -3.18055e-015 -7.95139e-016 -3.18055e-015 -3.18055e-015 -3.18055e-015 -3.18055e-015 50.56 11.0736 26.1447 24.7118 20.6871 3.19187 -4.22121 3.31923 51.7627 19.0145 6.58862 -20.2586 1.23357e-006 1.61566e-006 2.80741e-006 3.18055e-015 4.77083e-015 -1.59028e-015 -1.23357e-006 -1.61566e-006 -2.80741e-006 -3.18055e-015 3.18055e-015 2.38542e-015 1.23357e-006 1.61566e-006 2.80741e-006 -9.54166e-015 7.95139e-015 -3.97569e-015 -1.23357e-006 -1.61566e-006 -2.80741e-006 1.23357e-006 1.61566e-006 2.80741e-006 -9.54166e-015 7.95139e-015 -3.97569e-015 -1.23357e-006 -1.61566e-006 -2.80741e-006 -3.18055e-015 3.18055e-015 2.38542e-015 1.23357e-006 1.61566e-006 2.80741e-006 -9.54166e-015 7.95139e-015 -3.97569e-015 -1.23357e-006 -1.61566e-006 -2.80741e-006 1.23357e-006 1.61566e-006 2.80741e-006 -9.54166e-015 7.95139e-015 -3.97569e-015 -1.23357e-006 -1.61566e-006 -2.80741e-006 32.2964 -84.3554 44.6626 176.232 25.1714 -177.574 -25.8109 37.3792 75.8446 -121.068 -24.5455 -103.651 158.388 66.0499 -152.711 -3.52051 2.92145 -37.4889 
-23.4778 25.6407 47.7408 -1.23918e-014 4.5103e-015 -130 -2.9061 10.3239 -2.52369 -5.47666 20.7558 -4.61828 -5.47666 20.7558 -4.61829 -0.000483391 0.000469345 -1.89804e-005 0.374908 -3.63647 -1.22566 -33.7975 2.92248 -54.5194 -5.92075 -0.850469 -19.0741 6.9363 -5.0777 -5.72187 -0.701256 -5.67463 -28.3853 1.59028e-015 -2.54444e-014 3.18055e-015 -0 -2.54444e-014 -0 3.18055e-015 -2.38542e-014 6.36111e-015 1.59028e-015 0 -0 4.77083e-015 -2.54444e-014 9.54166e-015 -1.36831e-030 -2.46493e-014 -3.18055e-015 1.59028e-015 -2.54444e-014 -6.36111e-015 4.77083e-015 -2.54444e-014 9.54166e-015 -1.36831e-030 -2.46493e-014 -3.18055e-015 1.59028e-015 -2.54444e-014 -6.36111e-015 1.59028e-015 0 -0 4.77083e-015 -2.54444e-014 9.54166e-015 -1.36831e-030 -2.46493e-014 -3.18055e-015 1.59028e-015 -2.54444e-014 -6.36111e-015 4.77083e-015 -2.54444e-014 9.54166e-015 -1.36831e-030 -2.46493e-014 -3.18055e-015 1.59028e-015 -2.54444e-014 -6.36111e-015 50.56 11.0736 26.1447 24.9212 20.7277 2.59996 -4.31382 2.97613 52.454 18.4359 6.37493 -19.8097 3.39638e-006 -1.45489e-007 1.53372e-006 -6.36111e-015 3.18055e-015 -0 -3.39638e-006 1.45489e-007 -1.53372e-006 -3.18055e-015 0 3.97569e-016 3.39638e-006 -1.45489e-007 1.53372e-006 6.62086e-032 -3.18055e-015 1.19271e-015 -3.39638e-006 1.45489e-007 -1.53372e-006 3.39638e-006 -1.45489e-007 1.53372e-006 6.62086e-032 -3.18055e-015 1.19271e-015 -3.39638e-006 1.45489e-007 -1.53372e-006 -3.18055e-015 0 3.97569e-016 3.39638e-006 -1.45489e-007 1.53372e-006 6.62086e-032 -3.18055e-015 1.19271e-015 -3.39638e-006 1.45489e-007 -1.53372e-006 3.39638e-006 -1.45489e-007 1.53372e-006 6.62086e-032 -3.18055e-015 1.19271e-015 -3.39638e-006 1.45489e-007 -1.53372e-006 32.2964 -84.3554 44.6626 176.232 25.1714 -177.574 -25.8109 37.3792 75.8446 -121.068 -24.5455 -103.651 158.388 66.0499 -152.711 -3.52051 2.92145 -37.4889 
